<?xml version="1.0" encoding="UTF-8" standalone="no"?>
<!DOCTYPE svg PUBLIC "-//W3C//DTD SVG 1.1//EN"
 "http://www.w3.org/Graphics/SVG/1.1/DTD/svg11.dtd">
<!-- Generated by graphviz version 2.38.0 (20140413.2041)
 -->
<!-- Title: structs Pages: 1 -->
<svg width="508pt" height="272pt"
 viewBox="0.00 0.00 507.50 272.00" xmlns="http://www.w3.org/2000/svg" xmlns:xlink="http://www.w3.org/1999/xlink">
<g id="graph0" class="graph" transform="scale(1 1) rotate(0) translate(4 268)">
<title>structs</title>
<polygon fill="white" stroke="none" points="-4,4 -4,-268 503.5,-268 503.5,4 -4,4"/>
<!-- Equal -->
<g id="node1" class="node"><title>Equal</title>
<polygon fill="none" stroke="black" points="70,-196.5 70,-259.5 137,-259.5 137,-196.5 70,-196.5"/>
<text text-anchor="start" x="73" y="-224.3" font-family="Times New Roman,serif" font-size="14.00">Value = 43</text>
<polygon fill="none" stroke="black" points="137,-238.5 137,-259.5 234,-259.5 234,-238.5 137,-238.5"/>
<text text-anchor="start" x="140" y="-246.3" font-family="Times New Roman,serif" font-weight="bold" font-size="14.00">BinaryOpExpr</text>
<polygon fill="none" stroke="black" points="137,-217.5 137,-238.5 185,-238.5 185,-217.5 137,-217.5"/>
<text text-anchor="start" x="151.5" y="-224.3" font-family="Times New Roman,serif" font-size="14.00">Op</text>
<polygon fill="none" stroke="black" points="185,-217.5 185,-238.5 234,-238.5 234,-217.5 185,-217.5"/>
<text text-anchor="start" x="205" y="-224.3" font-family="Times New Roman,serif" font-size="14.00">=</text>
<polygon fill="none" stroke="black" points="137,-196.5 137,-217.5 185,-217.5 185,-196.5 137,-196.5"/>
<text text-anchor="start" x="147.5" y="-203.3" font-family="Times New Roman,serif" font-size="14.00">LHS</text>
<polygon fill="none" stroke="black" points="185,-196.5 185,-217.5 234,-217.5 234,-196.5 185,-196.5"/>
<text text-anchor="start" x="195.5" y="-203.3" font-family="Times New Roman,serif" font-size="14.00">RHS</text>
</g>
<!-- Plus -->
<g id="node2" class="node"><title>Plus</title>
<polygon fill="none" stroke="black" points="202,-89.5 202,-152.5 269,-152.5 269,-89.5 202,-89.5"/>
<text text-anchor="start" x="205" y="-117.3" font-family="Times New Roman,serif" font-size="14.00">Value = 43</text>
<polygon fill="none" stroke="black" points="269,-131.5 269,-152.5 366,-152.5 366,-131.5 269,-131.5"/>
<text text-anchor="start" x="272" y="-139.3" font-family="Times New Roman,serif" font-weight="bold" font-size="14.00">BinaryOpExpr</text>
<polygon fill="none" stroke="black" points="269,-110.5 269,-131.5 317,-131.5 317,-110.5 269,-110.5"/>
<text text-anchor="start" x="283.5" y="-117.3" font-family="Times New Roman,serif" font-size="14.00">Op</text>
<polygon fill="none" stroke="black" points="317,-110.5 317,-131.5 366,-131.5 366,-110.5 317,-110.5"/>
<text text-anchor="start" x="337" y="-117.3" font-family="Times New Roman,serif" font-size="14.00">+</text>
<polygon fill="none" stroke="black" points="269,-89.5 269,-110.5 317,-110.5 317,-89.5 269,-89.5"/>
<text text-anchor="start" x="279.5" y="-96.3" font-family="Times New Roman,serif" font-size="14.00">LHS</text>
<polygon fill="none" stroke="black" points="317,-89.5 317,-110.5 366,-110.5 366,-89.5 317,-89.5"/>
<text text-anchor="start" x="327.5" y="-96.3" font-family="Times New Roman,serif" font-size="14.00">RHS</text>
</g>
<!-- Equal&#45;&#45;Plus -->
<!-- Wildcard node added automatic in EG. -->
<g id="edge2" class="edge"><title>Equal:rhs&#45;&#45;Plus</title>
<path fill="none" stroke="black" d="M235,-206.5C259.143,-206.5 271.603,-180.29 277.899,-157.151"/>
</g>
<!-- MyInt -->
<g id="node3" class="node"><title>MyInt</title>
<polygon fill="none" stroke="black" points="8,-100.5 8,-142.5 75,-142.5 75,-100.5 8,-100.5"/>
<text text-anchor="start" x="11" y="-117.8" font-family="Times New Roman,serif" font-size="14.00">Value = 43</text>
<polygon fill="none" stroke="black" points="75,-121.5 75,-142.5 168,-142.5 168,-121.5 75,-121.5"/>
<text text-anchor="start" x="78" y="-129.3" font-family="Times New Roman,serif" font-weight="bold" font-size="14.00">IdentifierExpr</text>
<polygon fill="none" stroke="black" points="75,-100.5 75,-121.5 119,-121.5 119,-100.5 75,-100.5"/>
<text text-anchor="start" x="82.5" y="-107.3" font-family="Times New Roman,serif" font-size="14.00">Ident</text>
<polygon fill="none" stroke="black" points="119,-100.5 119,-121.5 168,-121.5 168,-100.5 119,-100.5"/>
<text text-anchor="start" x="126.5" y="-107.3" font-family="Times New Roman,serif" font-size="14.00">MyInt</text>
</g>
<!-- Equal&#45;&#45;MyInt -->
<!-- Wildcard node added automatic in EG. -->
<g id="edge1" class="edge"><title>Equal:lhs&#45;&#45;MyInt</title>
<path fill="none" stroke="black" d="M161,-195.5C161,-175.426 147.027,-158.944 131.308,-146.754"/>
</g>
<!-- MyOtherInt -->
<g id="node4" class="node"><title>MyOtherInt</title>
<polygon fill="none" stroke="black" points="136,-4 136,-46 197,-46 197,-4 136,-4"/>
<text text-anchor="start" x="139" y="-21.3" font-family="Times New Roman,serif" font-size="14.00">Value = 1</text>
<polygon fill="none" stroke="black" points="197,-25 197,-46 304,-46 304,-25 197,-25"/>
<text text-anchor="start" x="207" y="-32.8" font-family="Times New Roman,serif" font-weight="bold" font-size="14.00">IdentifierExpr</text>
<polygon fill="none" stroke="black" points="197,-4 197,-25 232,-25 232,-4 197,-4"/>
<text text-anchor="start" x="200" y="-10.8" font-family="Times New Roman,serif" font-size="14.00">Ident</text>
<polygon fill="none" stroke="black" points="232,-4 232,-25 304,-25 304,-4 232,-4"/>
<text text-anchor="start" x="235" y="-10.8" font-family="Times New Roman,serif" font-size="14.00">MyOtherInt</text>
</g>
<!-- Plus&#45;&#45;MyOtherInt -->
<!-- Wildcard node added automatic in EG. -->
<g id="edge3" class="edge"><title>Plus:lhs&#45;&#45;MyOtherInt</title>
<path fill="none" stroke="black" d="M293,-88.5C293,-72.6501 282.947,-59.9569 270.303,-50.2603"/>
</g>
<!-- Num -->
<g id="node5" class="node"><title>Num</title>
<polygon fill="none" stroke="black" points="339,-4 339,-46 406,-46 406,-4 339,-4"/>
<text text-anchor="start" x="342" y="-21.3" font-family="Times New Roman,serif" font-size="14.00">Value = 42</text>
<polygon fill="none" stroke="black" points="406,-25 406,-46 492,-46 492,-25 406,-25"/>
<text text-anchor="start" x="409" y="-32.8" font-family="Times New Roman,serif" font-weight="bold" font-size="14.00">NumberExpr</text>
<polygon fill="none" stroke="black" points="406,-4 406,-25 456,-25 456,-4 406,-4"/>
<text text-anchor="start" x="417" y="-10.8" font-family="Times New Roman,serif" font-size="14.00">Num</text>
<polygon fill="none" stroke="black" points="456,-4 456,-25 492,-25 492,-4 456,-4"/>
<text text-anchor="start" x="467" y="-10.8" font-family="Times New Roman,serif" font-size="14.00">42</text>
</g>
<!-- Plus&#45;&#45;Num -->
<!-- Wildcard node added automatic in EG. -->
<g id="edge4" class="edge"><title>Plus:rhs&#45;&#45;Num</title>
<path fill="none" stroke="black" d="M367,-99.5C391.08,-99.5 403.72,-71.5023 409.869,-50.0666"/>
</g>
</g>
</svg>
