<?xml version="1.0" encoding="UTF-8" standalone="no"?>
<!DOCTYPE svg PUBLIC "-//W3C//DTD SVG 1.1//EN"
 "http://www.w3.org/Graphics/SVG/1.1/DTD/svg11.dtd">
<!-- Generated by graphviz version 2.38.0 (20140413.2041)
 -->
<!-- Title: structs Pages: 1 -->
<svg width="297pt" height="272pt"
 viewBox="0.00 0.00 296.50 272.00" xmlns="http://www.w3.org/2000/svg" xmlns:xlink="http://www.w3.org/1999/xlink">
<g id="graph0" class="graph" transform="scale(1 1) rotate(0) translate(4 268)">
<title>structs</title>
<polygon fill="white" stroke="none" points="-4,4 -4,-268 292.5,-268 292.5,4 -4,4"/>
<!-- Equal -->
<g id="node1" class="node"><title>Equal</title>
<polygon fill="none" stroke="black" points="70.5,-238.5 70.5,-259.5 167.5,-259.5 167.5,-238.5 70.5,-238.5"/>
<text text-anchor="start" x="73.5" y="-246.3" font-family="Times New Roman,serif" font-weight="bold" font-size="14.00">BinaryOpExpr</text>
<polygon fill="none" stroke="black" points="70.5,-217.5 70.5,-238.5 118.5,-238.5 118.5,-217.5 70.5,-217.5"/>
<text text-anchor="start" x="85" y="-224.3" font-family="Times New Roman,serif" font-size="14.00">Op</text>
<polygon fill="none" stroke="black" points="118.5,-217.5 118.5,-238.5 167.5,-238.5 167.5,-217.5 118.5,-217.5"/>
<text text-anchor="start" x="138.5" y="-224.3" font-family="Times New Roman,serif" font-size="14.00">=</text>
<polygon fill="none" stroke="black" points="70.5,-196.5 70.5,-217.5 118.5,-217.5 118.5,-196.5 70.5,-196.5"/>
<text text-anchor="start" x="81" y="-203.3" font-family="Times New Roman,serif" font-size="14.00">LHS</text>
<polygon fill="none" stroke="black" points="118.5,-196.5 118.5,-217.5 167.5,-217.5 167.5,-196.5 118.5,-196.5"/>
<text text-anchor="start" x="129" y="-203.3" font-family="Times New Roman,serif" font-size="14.00">RHS</text>
</g>
<!-- Plus -->
<g id="node2" class="node"><title>Plus</title>
<polygon fill="none" stroke="black" points="135.5,-131.5 135.5,-152.5 232.5,-152.5 232.5,-131.5 135.5,-131.5"/>
<text text-anchor="start" x="138.5" y="-139.3" font-family="Times New Roman,serif" font-weight="bold" font-size="14.00">BinaryOpExpr</text>
<polygon fill="none" stroke="black" points="135.5,-110.5 135.5,-131.5 183.5,-131.5 183.5,-110.5 135.5,-110.5"/>
<text text-anchor="start" x="150" y="-117.3" font-family="Times New Roman,serif" font-size="14.00">Op</text>
<polygon fill="none" stroke="black" points="183.5,-110.5 183.5,-131.5 232.5,-131.5 232.5,-110.5 183.5,-110.5"/>
<text text-anchor="start" x="203.5" y="-117.3" font-family="Times New Roman,serif" font-size="14.00">+</text>
<polygon fill="none" stroke="black" points="135.5,-89.5 135.5,-110.5 183.5,-110.5 183.5,-89.5 135.5,-89.5"/>
<text text-anchor="start" x="146" y="-96.3" font-family="Times New Roman,serif" font-size="14.00">LHS</text>
<polygon fill="none" stroke="black" points="183.5,-89.5 183.5,-110.5 232.5,-110.5 232.5,-89.5 183.5,-89.5"/>
<text text-anchor="start" x="194" y="-96.3" font-family="Times New Roman,serif" font-size="14.00">RHS</text>
</g>
<!-- Equal&#45;&#45;Plus -->
<!-- Wildcard node added automatic in EG. -->
<g id="edge2" class="edge"><title>Equal:rhs&#45;&#45;Plus</title>
<path fill="none" stroke="black" d="M143.5,-195.5C143.5,-182.06 148.779,-168.751 155.501,-157.252"/>
</g>
<!-- MyInt -->
<g id="node3" class="node"><title>MyInt</title>
<polygon fill="none" stroke="black" points="8.5,-121.5 8.5,-142.5 101.5,-142.5 101.5,-121.5 8.5,-121.5"/>
<text text-anchor="start" x="11.5" y="-129.3" font-family="Times New Roman,serif" font-weight="bold" font-size="14.00">IdentifierExpr</text>
<polygon fill="none" stroke="black" points="8.5,-100.5 8.5,-121.5 52.5,-121.5 52.5,-100.5 8.5,-100.5"/>
<text text-anchor="start" x="16" y="-107.3" font-family="Times New Roman,serif" font-size="14.00">Ident</text>
<polygon fill="none" stroke="black" points="52.5,-100.5 52.5,-121.5 101.5,-121.5 101.5,-100.5 52.5,-100.5"/>
<text text-anchor="start" x="60" y="-107.3" font-family="Times New Roman,serif" font-size="14.00">MyInt</text>
</g>
<!-- Equal&#45;&#45;MyInt -->
<!-- Wildcard node added automatic in EG. -->
<g id="edge1" class="edge"><title>Equal:lhs&#45;&#45;MyInt</title>
<path fill="none" stroke="black" d="M94.5,-195.5C94.5,-177.725 85.266,-160.178 75.6713,-146.744"/>
</g>
<!-- MyOtherInt -->
<g id="node4" class="node"><title>MyOtherInt</title>
<polygon fill="none" stroke="black" points="53.5,-25 53.5,-46 160.5,-46 160.5,-25 53.5,-25"/>
<text text-anchor="start" x="63.5" y="-32.8" font-family="Times New Roman,serif" font-weight="bold" font-size="14.00">IdentifierExpr</text>
<polygon fill="none" stroke="black" points="53.5,-4 53.5,-25 88.5,-25 88.5,-4 53.5,-4"/>
<text text-anchor="start" x="56.5" y="-10.8" font-family="Times New Roman,serif" font-size="14.00">Ident</text>
<polygon fill="none" stroke="black" points="88.5,-4 88.5,-25 160.5,-25 160.5,-4 88.5,-4"/>
<text text-anchor="start" x="91.5" y="-10.8" font-family="Times New Roman,serif" font-size="14.00">MyOtherInt</text>
</g>
<!-- Plus&#45;&#45;MyOtherInt -->
<!-- Wildcard node added automatic in EG. -->
<g id="edge3" class="edge"><title>Plus:lhs&#45;&#45;MyOtherInt</title>
<path fill="none" stroke="black" d="M134.5,-99.5C123.713,-99.5 115.575,-71.5023 110.926,-50.0666"/>
</g>
<!-- Num -->
<g id="node5" class="node"><title>Num</title>
<polygon fill="none" stroke="black" points="194.5,-25 194.5,-46 280.5,-46 280.5,-25 194.5,-25"/>
<text text-anchor="start" x="197.5" y="-32.8" font-family="Times New Roman,serif" font-weight="bold" font-size="14.00">NumberExpr</text>
<polygon fill="none" stroke="black" points="194.5,-4 194.5,-25 244.5,-25 244.5,-4 194.5,-4"/>
<text text-anchor="start" x="205.5" y="-10.8" font-family="Times New Roman,serif" font-size="14.00">Num</text>
<polygon fill="none" stroke="black" points="244.5,-4 244.5,-25 280.5,-25 280.5,-4 244.5,-4"/>
<text text-anchor="start" x="255.5" y="-10.8" font-family="Times New Roman,serif" font-size="14.00">42</text>
</g>
<!-- Plus&#45;&#45;Num -->
<!-- Wildcard node added automatic in EG. -->
<g id="edge4" class="edge"><title>Plus&#45;&#45;Num</title>
<path fill="none" stroke="black" d="M203.301,-85.8483C210.104,-73.9434 217.564,-60.8875 223.776,-50.0163"/>
</g>
</g>
</svg>
